<?xml version="1.0" encoding="iso-8859-1"?>
<!-- Generator: Adobe Illustrator 16.0.0, SVG Export Plug-In . SVG Version: 6.00 Build 0)  -->
<!DOCTYPE svg PUBLIC "-//W3C//DTD SVG 1.1//EN" "http://www.w3.org/Graphics/SVG/1.1/DTD/svg11.dtd">
<svg version="1.1" id="Capa_1" xmlns="http://www.w3.org/2000/svg" xmlns:xlink="http://www.w3.org/1999/xlink" x="0px" y="0px"
	 width="235.511px" height="235.511px" viewBox="0 0 235.511 235.511" style="enable-background:new 0 0 235.511 235.511;"
	 xml:space="preserve">
<g>
	<g>
		<path d="M174.073,0H61.437C27.61,0,0.023,27.595,0.023,61.486v112.567c0,33.891,27.595,61.458,61.414,61.458h112.636
			c33.831,0,61.414-27.567,61.414-61.458V61.486C235.487,27.595,207.889,0,174.073,0z M61.437,17.733h20.676v98.076
			c0,24.141-19.632,43.753-43.767,43.753H17.758V61.486C17.758,37.352,37.304,17.733,61.437,17.733z M217.747,174.053
			c0,24.108-19.541,43.729-43.674,43.729h-26.817c-7.959,0-14.45-6.472-14.45-14.454v-49.853c0-7.975,6.491-14.442,14.45-14.442
			h24.738c10.812,0,10.812,6.383,10.812,9.489v20.63c0,1.964-1.559,3.551-3.542,3.551h-16.868c-0.597,0-2.075,0-1.807,0.389
			c-0.257-0.305-1.735-2.981-1.735-13.598c0-4.893-3.972-8.864-8.816-8.864c-4.938,0-8.908,3.987-8.908,8.864
			c0,18.583,3.635,30.941,21.267,30.941h16.868c11.757,0,21.279-9.554,21.279-21.275v-20.63c0-16.53-11.253-27.223-28.549-27.223
			h-24.738c-17.732,0-32.184,14.443-32.184,32.176v49.86c0,5.273,1.647,10.059,3.888,14.443H61.437
			c-22.927,0-41.265-17.954-43.076-40.483h19.985c33.909,0,61.504-27.591,61.504-61.486V17.741h74.223
			c24.133,0,43.674,19.618,43.674,43.751V174.053L217.747,174.053z"/>
		<path d="M161.614,47.598c-9.613,0-17.304,7.738-17.304,17.302c0,9.56,7.69,17.304,17.304,17.304
			c9.514,0,17.305-7.744,17.305-17.304C178.919,55.345,171.128,47.598,161.614,47.598z"/>
	</g>
</g>
<g>
</g>
<g>
</g>
<g>
</g>
<g>
</g>
<g>
</g>
<g>
</g>
<g>
</g>
<g>
</g>
<g>
</g>
<g>
</g>
<g>
</g>
<g>
</g>
<g>
</g>
<g>
</g>
<g>
</g>
</svg>
